<svg xmlns="http://www.w3.org/2000/svg" xmlns:xlink="http://www.w3.org/1999/xlink" width="1400" zoomAndPan="magnify" viewBox="0 0 1050 225" height="300" preserveAspectRatio="xMidYMid meet" version="1.0"><defs><g/></defs><g fill="#2c3943" fill-opacity="1"><g transform="translate(20.000002, 202.501466)"><g><path d="M 80.8125 2.9375 C 67.0625 2.9375 55.117188 0.71875 44.984375 -3.71875 C 34.847656 -8.15625 26.953125 -14.523438 21.296875 -22.828125 C 15.640625 -31.128906 12.566406 -40.976562 12.078125 -52.375 L 39.796875 -52.375 C 40.285156 -45.53125 42.359375 -39.789062 46.015625 -35.15625 C 49.679688 -30.519531 54.523438 -27.019531 60.546875 -24.65625 C 66.566406 -22.300781 73.28125 -21.125 80.6875 -21.125 C 88.5 -21.125 95.4375 -22.34375 101.5 -24.78125 C 107.5625 -27.21875 112.320312 -30.632812 115.78125 -35.03125 C 119.238281 -39.425781 120.96875 -44.554688 120.96875 -50.421875 C 120.96875 -55.628906 119.523438 -59.921875 116.640625 -63.296875 C 113.753906 -66.671875 109.722656 -69.515625 104.546875 -71.828125 C 99.378906 -74.148438 93.335938 -76.207031 86.421875 -78 L 65.3125 -83.5 C 49.6875 -87.644531 37.703125 -93.625 29.359375 -101.4375 C 21.015625 -109.25 16.84375 -119.421875 16.84375 -131.953125 C 16.84375 -142.453125 19.628906 -151.648438 25.203125 -159.546875 C 30.773438 -167.441406 38.425781 -173.566406 48.15625 -177.921875 C 57.882812 -182.273438 68.929688 -184.453125 81.296875 -184.453125 C 93.910156 -184.453125 104.976562 -182.234375 114.5 -177.796875 C 124.019531 -173.359375 131.460938 -167.253906 136.828125 -159.484375 C 142.203125 -151.710938 145.054688 -142.738281 145.390625 -132.5625 L 118.40625 -132.5625 C 117.59375 -141.351562 113.769531 -148.191406 106.9375 -153.078125 C 100.101562 -157.960938 91.394531 -160.40625 80.8125 -160.40625 C 73.488281 -160.40625 67.097656 -159.242188 61.640625 -156.921875 C 56.191406 -154.597656 51.960938 -151.398438 48.953125 -147.328125 C 45.941406 -143.265625 44.4375 -138.628906 44.4375 -133.421875 C 44.4375 -127.972656 46.0625 -123.5 49.3125 -120 C 52.570312 -116.5 56.742188 -113.691406 61.828125 -111.578125 C 66.910156 -109.460938 72.179688 -107.671875 77.640625 -106.203125 L 95.703125 -101.5625 C 102.210938 -99.9375 108.597656 -97.820312 114.859375 -95.21875 C 121.128906 -92.613281 126.785156 -89.316406 131.828125 -85.328125 C 136.878906 -81.335938 140.890625 -76.492188 143.859375 -70.796875 C 146.828125 -65.097656 148.3125 -58.34375 148.3125 -50.53125 C 148.3125 -40.113281 145.644531 -30.878906 140.3125 -22.828125 C 134.988281 -14.773438 127.28125 -8.46875 117.1875 -3.90625 C 107.09375 0.65625 94.96875 2.9375 80.8125 2.9375 Z M 80.8125 2.9375 "/></g></g></g><g fill="#2c3943" fill-opacity="1"><g transform="translate(175.39878, 202.501466)"><g><path d="M 71.171875 0 L 5.25 -181.890625 L 35.15625 -181.890625 L 70.671875 -80.4375 C 73.273438 -72.625 76.265625 -63.101562 79.640625 -51.875 C 83.023438 -40.644531 86.914062 -27.378906 91.3125 -12.078125 L 85.203125 -12.078125 C 89.515625 -27.628906 93.335938 -40.957031 96.671875 -52.0625 C 100.015625 -63.164062 102.945312 -72.625 105.46875 -80.4375 L 140.015625 -181.890625 L 169.796875 -181.890625 L 104.859375 0 Z M 71.171875 0 "/></g></g></g><g fill="#2c3943" fill-opacity="1"><g transform="translate(345.445838, 202.501466)"><g><path d="M 19.28125 0 L 19.28125 -181.890625 L 85.453125 -181.890625 C 99.203125 -181.890625 110.773438 -179.488281 120.171875 -174.6875 C 129.578125 -169.882812 136.660156 -163.1875 141.421875 -154.59375 C 146.179688 -146.007812 148.5625 -136.101562 148.5625 -124.875 C 148.5625 -113.5625 146.117188 -103.691406 141.234375 -95.265625 C 136.347656 -86.847656 129.1875 -80.316406 119.75 -75.671875 C 110.3125 -71.035156 98.675781 -68.71875 84.84375 -68.71875 L 35.28125 -68.71875 L 35.28125 -92.40625 L 82.890625 -92.40625 C 91.597656 -92.40625 98.71875 -93.6875 104.25 -96.25 C 109.78125 -98.8125 113.890625 -102.535156 116.578125 -107.421875 C 119.265625 -112.304688 120.609375 -118.125 120.609375 -124.875 C 120.609375 -131.707031 119.265625 -137.609375 116.578125 -142.578125 C 113.890625 -147.546875 109.757812 -151.367188 104.1875 -154.046875 C 98.613281 -156.734375 91.429688 -158.078125 82.640625 -158.078125 L 47.125 -158.078125 L 47.125 0 Z M 123.046875 0 L 79.21875 -82.15625 L 109.859375 -82.15625 L 154.546875 0 Z M 123.046875 0 "/></g></g></g><g fill="#2c3943" fill-opacity="1"><g transform="translate(501.943239, 202.501466)"><g><path d="M 19.28125 0 L 19.28125 -181.890625 L 51.03125 -181.890625 L 119.625 -73.25 C 121.820312 -69.90625 124.300781 -65.8125 127.0625 -60.96875 C 129.832031 -56.132812 132.785156 -50.722656 135.921875 -44.734375 C 139.054688 -38.753906 142.128906 -32.390625 145.140625 -25.640625 L 141.84375 -24.296875 C 141.269531 -30.722656 140.800781 -37.269531 140.4375 -43.9375 C 140.070312 -50.613281 139.828125 -56.878906 139.703125 -62.734375 C 139.585938 -68.597656 139.53125 -73.441406 139.53125 -77.265625 L 139.53125 -181.890625 L 167.484375 -181.890625 L 167.484375 0 L 135.625 0 L 74.09375 -97.171875 C 71.164062 -101.972656 68.132812 -107.015625 65 -112.296875 C 61.863281 -117.585938 58.363281 -123.734375 54.5 -130.734375 C 50.632812 -137.734375 46.054688 -146.078125 40.765625 -155.765625 L 45.046875 -156.984375 C 45.535156 -147.953125 45.941406 -139.566406 46.265625 -131.828125 C 46.585938 -124.097656 46.847656 -117.285156 47.046875 -111.390625 C 47.253906 -105.492188 47.359375 -100.796875 47.359375 -97.296875 L 47.359375 0 Z M 19.28125 0 "/></g></g></g><g fill="#2c3943" fill-opacity="1"><g transform="translate(683.708964, 202.501466)"><g><path d="M 95.453125 2.5625 C 79.585938 2.5625 65.445312 -1.21875 53.03125 -8.78125 C 40.625 -16.351562 30.835938 -27.117188 23.671875 -41.078125 C 16.515625 -55.035156 12.9375 -71.617188 12.9375 -90.828125 C 12.9375 -110.109375 16.515625 -126.75 23.671875 -140.75 C 30.835938 -154.75 40.625 -165.53125 53.03125 -173.09375 C 65.445312 -180.664062 79.585938 -184.453125 95.453125 -184.453125 C 111.242188 -184.453125 125.34375 -180.664062 137.75 -173.09375 C 150.164062 -165.53125 159.929688 -154.75 167.046875 -140.75 C 174.171875 -126.75 177.734375 -110.109375 177.734375 -90.828125 C 177.734375 -71.617188 174.171875 -55.035156 167.046875 -41.078125 C 159.929688 -27.117188 150.164062 -16.351562 137.75 -8.78125 C 125.34375 -1.21875 111.242188 2.5625 95.453125 2.5625 Z M 95.453125 -22.703125 C 105.796875 -22.703125 115.097656 -25.304688 123.359375 -30.515625 C 131.617188 -35.722656 138.144531 -43.410156 142.9375 -53.578125 C 147.738281 -63.753906 150.140625 -76.171875 150.140625 -90.828125 C 150.140625 -105.628906 147.738281 -118.117188 142.9375 -128.296875 C 138.144531 -138.472656 131.617188 -146.164062 123.359375 -151.375 C 115.097656 -156.582031 105.796875 -159.1875 95.453125 -159.1875 C 85.035156 -159.1875 75.675781 -156.5625 67.375 -151.3125 C 59.082031 -146.0625 52.515625 -138.347656 47.671875 -128.171875 C 42.828125 -118.003906 40.40625 -105.554688 40.40625 -90.828125 C 40.40625 -76.171875 42.828125 -63.773438 47.671875 -53.640625 C 52.515625 -43.515625 59.082031 -35.828125 67.375 -30.578125 C 75.675781 -25.328125 85.035156 -22.703125 95.453125 -22.703125 Z M 95.453125 -22.703125 "/></g></g></g><g fill="#2c3943" fill-opacity="1"><g transform="translate(869.380831, 202.501466)"><g><path d="M 80.8125 2.9375 C 67.0625 2.9375 55.117188 0.71875 44.984375 -3.71875 C 34.847656 -8.15625 26.953125 -14.523438 21.296875 -22.828125 C 15.640625 -31.128906 12.566406 -40.976562 12.078125 -52.375 L 39.796875 -52.375 C 40.285156 -45.53125 42.359375 -39.789062 46.015625 -35.15625 C 49.679688 -30.519531 54.523438 -27.019531 60.546875 -24.65625 C 66.566406 -22.300781 73.28125 -21.125 80.6875 -21.125 C 88.5 -21.125 95.4375 -22.34375 101.5 -24.78125 C 107.5625 -27.21875 112.320312 -30.632812 115.78125 -35.03125 C 119.238281 -39.425781 120.96875 -44.554688 120.96875 -50.421875 C 120.96875 -55.628906 119.523438 -59.921875 116.640625 -63.296875 C 113.753906 -66.671875 109.722656 -69.515625 104.546875 -71.828125 C 99.378906 -74.148438 93.335938 -76.207031 86.421875 -78 L 65.3125 -83.5 C 49.6875 -87.644531 37.703125 -93.625 29.359375 -101.4375 C 21.015625 -109.25 16.84375 -119.421875 16.84375 -131.953125 C 16.84375 -142.453125 19.628906 -151.648438 25.203125 -159.546875 C 30.773438 -167.441406 38.425781 -173.566406 48.15625 -177.921875 C 57.882812 -182.273438 68.929688 -184.453125 81.296875 -184.453125 C 93.910156 -184.453125 104.976562 -182.234375 114.5 -177.796875 C 124.019531 -173.359375 131.460938 -167.253906 136.828125 -159.484375 C 142.203125 -151.710938 145.054688 -142.738281 145.390625 -132.5625 L 118.40625 -132.5625 C 117.59375 -141.351562 113.769531 -148.191406 106.9375 -153.078125 C 100.101562 -157.960938 91.394531 -160.40625 80.8125 -160.40625 C 73.488281 -160.40625 67.097656 -159.242188 61.640625 -156.921875 C 56.191406 -154.597656 51.960938 -151.398438 48.953125 -147.328125 C 45.941406 -143.265625 44.4375 -138.628906 44.4375 -133.421875 C 44.4375 -127.972656 46.0625 -123.5 49.3125 -120 C 52.570312 -116.5 56.742188 -113.691406 61.828125 -111.578125 C 66.910156 -109.460938 72.179688 -107.671875 77.640625 -106.203125 L 95.703125 -101.5625 C 102.210938 -99.9375 108.597656 -97.820312 114.859375 -95.21875 C 121.128906 -92.613281 126.785156 -89.316406 131.828125 -85.328125 C 136.878906 -81.335938 140.890625 -76.492188 143.859375 -70.796875 C 146.828125 -65.097656 148.3125 -58.34375 148.3125 -50.53125 C 148.3125 -40.113281 145.644531 -30.878906 140.3125 -22.828125 C 134.988281 -14.773438 127.28125 -8.46875 117.1875 -3.90625 C 107.09375 0.65625 94.96875 2.9375 80.8125 2.9375 Z M 80.8125 2.9375 "/></g></g></g></svg>