<svg xmlns="http://www.w3.org/2000/svg" xmlns:xlink="http://www.w3.org/1999/xlink" width="2000" zoomAndPan="magnify" viewBox="0 0 1500 1499.999933" height="2000" preserveAspectRatio="xMidYMid meet" version="1.0"><defs><g/><clipPath id="7b4803e07b"><rect x="0" width="1498" y="0" height="1415"/></clipPath></defs><rect x="-150" width="1800" fill="#ffffff" y="-149.999993" height="1799.99992" fill-opacity="1"/><rect x="-150" width="1800" fill="#2f5d50" y="-149.999993" height="1799.99992" fill-opacity="1"/><g transform="matrix(1, 0, 0, 1, 0, 30)"><g clip-path="url(#7b4803e07b)"><g fill="#ffffff" fill-opacity="1"><g transform="translate(-31.474915, 1131.697685)"><g><path d="M 377.359375 13.6875 C 313.140625 13.6875 257.375 3.332031 210.0625 -17.375 C 162.75 -38.09375 125.882812 -67.832031 99.46875 -106.59375 C 73.0625 -145.351562 58.71875 -191.335938 56.4375 -244.546875 L 185.828125 -244.546875 C 188.109375 -212.617188 197.800781 -185.820312 214.90625 -164.15625 C 232.007812 -142.5 254.617188 -126.160156 282.734375 -115.140625 C 310.859375 -104.117188 342.210938 -98.609375 376.796875 -98.609375 C 413.273438 -98.609375 445.671875 -104.304688 473.984375 -115.703125 C 502.296875 -127.109375 524.523438 -143.070312 540.671875 -163.59375 C 556.828125 -184.125 564.90625 -208.066406 564.90625 -235.421875 C 564.90625 -259.742188 558.160156 -279.789062 544.671875 -295.5625 C 531.179688 -311.332031 512.367188 -324.632812 488.234375 -335.46875 C 464.109375 -346.300781 435.894531 -355.894531 403.59375 -364.25 L 304.96875 -389.90625 C 232 -409.289062 176.039062 -437.222656 137.09375 -473.703125 C 98.144531 -510.179688 78.671875 -557.679688 78.671875 -616.203125 C 78.671875 -665.234375 91.6875 -708.175781 117.71875 -745.03125 C 143.75 -781.894531 179.46875 -810.492188 224.875 -830.828125 C 270.289062 -851.160156 321.878906 -861.328125 379.640625 -861.328125 C 438.546875 -861.328125 490.226562 -850.96875 534.6875 -830.25 C 579.15625 -809.539062 613.929688 -781.039062 639.015625 -744.75 C 664.097656 -708.457031 677.398438 -666.5625 678.921875 -619.0625 L 552.9375 -619.0625 C 549.132812 -660.101562 531.269531 -692.023438 499.34375 -714.828125 C 467.425781 -737.628906 426.765625 -749.03125 377.359375 -749.03125 C 343.160156 -749.03125 313.328125 -743.613281 287.859375 -732.78125 C 262.398438 -721.945312 242.640625 -707.03125 228.578125 -688.03125 C 214.523438 -669.03125 207.5 -647.367188 207.5 -623.046875 C 207.5 -597.585938 215.097656 -576.6875 230.296875 -560.34375 C 245.492188 -544 264.96875 -530.882812 288.71875 -521 C 312.46875 -511.125 337.078125 -502.769531 362.546875 -495.9375 L 446.90625 -474.265625 C 477.3125 -466.671875 507.144531 -456.789062 536.40625 -444.625 C 565.664062 -432.46875 592.078125 -417.078125 615.640625 -398.453125 C 639.203125 -379.835938 657.914062 -357.226562 671.78125 -330.625 C 685.65625 -304.019531 692.59375 -272.476562 692.59375 -236 C 692.59375 -187.351562 680.144531 -144.21875 655.25 -106.59375 C 630.363281 -68.96875 594.359375 -39.515625 547.234375 -18.234375 C 500.109375 3.046875 443.484375 13.6875 377.359375 13.6875 Z M 377.359375 13.6875 "/></g></g></g><g fill="#ffffff" fill-opacity="1"><g transform="translate(694.203769, 1131.697685)"><g><path d="M 332.328125 0 L 24.515625 -849.359375 L 164.171875 -849.359375 L 330.046875 -375.65625 C 342.210938 -339.175781 356.179688 -294.710938 371.953125 -242.265625 C 387.722656 -189.816406 405.867188 -127.875 426.390625 -56.4375 L 397.890625 -56.4375 C 418.023438 -129.019531 435.882812 -191.25 451.46875 -243.125 C 467.050781 -295 480.734375 -339.175781 492.515625 -375.65625 L 653.828125 -849.359375 L 792.921875 -849.359375 L 489.65625 0 Z M 332.328125 0 "/></g></g></g></g></g></svg>